<?xml version="1.0" standalone="no"?>
<svg version="1.0" xmlns="http://www.w3.org/2000/svg"
 width="784.000000pt" height="778.000000pt" viewBox="0 0 784.000000 778.000000"
 preserveAspectRatio="xMidYMid meet">

<g transform="translate(0.000000,778.000000) scale(0.100000,-0.100000)"
fill="#f21646" stroke="none">
<path d="M3580 7750 c-279 -30 -518 -78 -769 -156 -1379 -428 -2409 -1609
-2647 -3034 -28 -171 -54 -467 -54 -630 0 -163 26 -459 54 -630 132 -788 504
-1509 1076 -2080 565 -566 1256 -926 2050 -1070 183 -33 480 -60 660 -60 163
0 459 26 630 54 526 88 1045 293 1489 588 790 526 1374 1347 1601 2255 73 294
120 660 120 943 0 163 -26 459 -54 630 -235 1410 -1248 2583 -2611 3023 -494
159 -1049 219 -1545 167z m558 -2465 c162 -23 263 -54 418 -130 480 -233 787
-750 761 -1277 -10 -213 -49 -364 -141 -554 -186 -380 -548 -656 -971 -741
-124 -24 -386 -24 -509 0 -412 83 -774 352 -958 713 -182 356 -206 738 -71
1109 219 598 840 970 1471 880z m-1813 -1517 c28 -295 155 -611 334 -838 221
-280 525 -485 851 -573 166 -46 221 -52 445 -52 194 0 232 3 324 23 237 53
452 148 627 277 383 284 624 702 669 1163 l8 72 1011 -2 1011 -3 -3 -90 c-12
-328 -93 -729 -215 -1070 -48 -131 -84 -215 -166 -380 -466 -942 -1347 -1653
-2363 -1910 -333 -84 -542 -109 -908 -109 -359 0 -533 20 -865 99 -1138 271
-2101 1109 -2535 2205 -12 30 -26 66 -32 80 -46 114 -121 385 -157 565 -36
179 -79 583 -65 606 3 5 443 9 1014 9 l1008 0 7 -72z"/>
<path d="M3790 4829 c-82 -14 -211 -61 -297 -110 -108 -61 -271 -224 -332
-332 -256 -456 -92 -1020 369 -1264 137 -73 242 -97 420 -97 194 0 307 30 465
122 205 120 354 322 421 572 25 91 25 329 0 420 -52 194 -126 320 -265 452
-133 126 -299 210 -471 237 -77 13 -233 12 -310 0z m362 -306 c194 -67 341
-221 406 -425 23 -73 23 -263 -1 -338 -66 -212 -225 -371 -437 -437 -75 -24
-265 -24 -338 -1 -113 36 -184 80 -268 163 -88 88 -122 142 -162 255 -22 64
-25 92 -25 190 0 97 4 127 27 193 59 176 196 323 359 388 144 57 295 61 439
12z"/>
</g>
</svg>
