<?xml version="1.0" standalone="no"?>
<svg version="1.0" xmlns="http://www.w3.org/2000/svg"
 width="309.000000pt" height="334.000000pt" viewBox="0 0 309.000000 334.000000"
 preserveAspectRatio="xMidYMid meet">

<g transform="translate(0.000000,334.000000) scale(0.100000,-0.100000)"
fill="#3478d1" stroke="none">
<path d="M414 3201 c-2 -2 -1 -135 2 -295 4 -160 3 -411 -1 -558 l-7 -268
-134 0 -134 0 0 -385 0 -385 140 0 140 0 0 -585 0 -585 415 0 415 0 0 585 0
585 740 1 c407 1 746 2 753 3 9 1 13 86 15 384 l2 382 -755 0 -755 0 0 185 0
185 855 0 855 0 0 375 0 375 -1271 2 c-699 2 -1273 1 -1275 -1z m1299 -281
l967 0 0 -90 0 -90 -860 0 -860 0 0 -330 0 -330 -130 0 -130 0 0 426 0 426 23
-6 c12 -3 457 -6 990 -6z m767 -1225 l0 -95 -1035 0 -1035 0 0 49 c0 26 3 69
6 95 l7 46 1028 0 1029 0 0 -95z m-1520 -830 l0 -445 -130 0 -130 0 0 445 0
445 130 0 130 0 0 -445z"/>
</g>
</svg>
